<svg width="40" height="40" viewBox="0 0 40 40" fill="none" xmlns="http://www.w3.org/2000/svg">
<circle cx="20" cy="20" r="19.4737" fill="white" stroke="#EBEBEB" stroke-width="1.05263"/>
<rect width="16" height="16" transform="translate(12 12)" fill="white"/>
<path d="M18.6167 18.143L18.9703 17.7895L18.2632 17.0824L17.9096 17.4359L18.2632 17.7895L18.6167 18.143ZM16.1579 19.8947L15.8043 19.5412L15.4508 19.8947L15.8043 20.2483L16.1579 19.8947ZM17.9096 22.3536L18.2632 22.7071L18.9703 22L18.6167 21.6464L18.2632 22L17.9096 22.3536ZM18.2632 17.7895L17.9096 17.4359L15.8043 19.5412L16.1579 19.8947L16.5114 20.2483L18.6167 18.143L18.2632 17.7895ZM16.1579 19.8947L15.8043 20.2483L17.9096 22.3536L18.2632 22L18.6167 21.6464L16.5114 19.5412L16.1579 19.8947ZM16.1579 19.8947V20.3947H23V19.8947V19.3947H16.1579V19.8947Z" fill="#111111"/>
</svg>
